<mxfile host="app.diagrams.net" modified="2022-06-04T08:47:55.101Z" agent="5.0 (Windows NT 10.0; Win64; x64) AppleWebKit/537.36 (KHTML, like Gecko) Chrome/102.0.0.0 Safari/537.36" etag="Yn4jJkIHZeVR_FwYPzKg" version="19.0.0" type="github">
  <diagram id="wlnrP0gRxLfDubfsxjE4" name="Page-1">
    <mxGraphModel dx="6359" dy="2735" grid="1" gridSize="10" guides="1" tooltips="1" connect="1" arrows="1" fold="1" page="1" pageScale="1" pageWidth="1169" pageHeight="827" math="0" shadow="0">
      <root>
        <mxCell id="0" />
        <mxCell id="1" parent="0" />
        <UserObject label="" lucidchartObjectId="5YBlrfMfKivl" id="fq6MFtSMGeEJQBp6nKeb-1">
          <mxCell style="html=1;overflow=block;blockSpacing=1;whiteSpace=wrap;ellipse;container=1;pointerEvents=0;collapsible=0;recursiveResize=0;fontSize=40;spacing=0;strokeOpacity=100;fillOpacity=100;rounded=1;absoluteArcSize=1;arcSize=12;strokeWidth=12;sketch=0;fillColor=#dae8fc;strokeColor=#6c8ebf;gradientColor=#7ea6e0;fontFamily=Tahoma;fontStyle=1;labelBackgroundColor=none;labelBorderColor=none;" parent="1" vertex="1">
            <mxGeometry x="-630" y="50" width="322" height="195" as="geometry" />
          </mxCell>
        </UserObject>
        <UserObject label="Login #001" lucidchartObjectId="u8su-J1nbLBg" id="fq6MFtSMGeEJQBp6nKeb-2">
          <mxCell style="html=1;overflow=block;blockSpacing=1;whiteSpace=wrap;fontSize=40;fontStyle=3;spacing=3.8;strokeOpacity=0;fillOpacity=0;strokeWidth=12;sketch=0;fillColor=#dae8fc;strokeColor=#6c8ebf;gradientColor=#7ea6e0;fontFamily=Tahoma;labelBackgroundColor=none;labelBorderColor=none;" parent="1" vertex="1">
            <mxGeometry x="-446" y="470" width="291" height="71" as="geometry" />
          </mxCell>
        </UserObject>
        <UserObject label="" lucidchartObjectId="zPBlofIj.yqd" id="fq6MFtSMGeEJQBp6nKeb-3">
          <mxCell style="html=1;overflow=block;blockSpacing=1;whiteSpace=wrap;shape=image;fontSize=40;spacing=0;strokeOpacity=100;strokeWidth=12;image=https://images.lucid.app/images/9bb614e1-0ae0-48ad-add0-2d78d388c0b0/content;sketch=0;fillColor=#dae8fc;strokeColor=#6c8ebf;gradientColor=#7ea6e0;fontFamily=Tahoma;fontStyle=1;labelBackgroundColor=none;labelBorderColor=none;" parent="1" vertex="1">
            <mxGeometry x="280" y="408" width="495" height="1063" as="geometry" />
          </mxCell>
        </UserObject>
        <UserObject label="" lucidchartObjectId="zPBlqZNumPix" id="fq6MFtSMGeEJQBp6nKeb-4">
          <mxCell style="html=1;overflow=block;blockSpacing=1;whiteSpace=wrap;shape=image;fontSize=40;spacing=0;strokeOpacity=100;strokeWidth=12;image=https://images.lucid.app/images/6db2fdbd-bcaa-46f4-b70a-9a4ddf937dcd/content;sketch=0;fillColor=#dae8fc;strokeColor=#6c8ebf;gradientColor=#7ea6e0;fontFamily=Tahoma;fontStyle=1;labelBackgroundColor=none;labelBorderColor=none;" parent="1" vertex="1">
            <mxGeometry x="2597" y="596" width="562" height="1088" as="geometry" />
          </mxCell>
        </UserObject>
        <mxCell id="fq6MFtSMGeEJQBp6nKeb-5" style="edgeStyle=orthogonalEdgeStyle;curved=0;rounded=1;sketch=0;orthogonalLoop=1;jettySize=auto;html=1;labelBackgroundColor=none;labelBorderColor=none;fontFamily=Tahoma;fontSize=77;fontColor=#FFFFFF;strokeColor=#6c8ebf;strokeWidth=12;fillColor=#dae8fc;gradientColor=#7ea6e0;" parent="1" source="fq6MFtSMGeEJQBp6nKeb-6" target="fq6MFtSMGeEJQBp6nKeb-27" edge="1">
          <mxGeometry relative="1" as="geometry" />
        </mxCell>
        <UserObject label="" lucidchartObjectId="zPBlGNtn2ROx" id="fq6MFtSMGeEJQBp6nKeb-6">
          <mxCell style="html=1;overflow=block;blockSpacing=1;whiteSpace=wrap;shape=image;fontSize=40;spacing=0;strokeOpacity=100;strokeWidth=12;image=https://images.lucid.app/images/9f643437-12f1-4a71-a6fe-a88cfd6d384b/content;sketch=0;fillColor=#dae8fc;strokeColor=#6c8ebf;gradientColor=#7ea6e0;fontFamily=Tahoma;fontStyle=1;labelBackgroundColor=none;labelBorderColor=none;" parent="1" vertex="1">
            <mxGeometry x="1708" y="2549" width="515" height="1106" as="geometry" />
          </mxCell>
        </UserObject>
        <mxCell id="fq6MFtSMGeEJQBp6nKeb-7" style="edgeStyle=orthogonalEdgeStyle;curved=0;rounded=1;sketch=0;orthogonalLoop=1;jettySize=auto;html=1;labelBackgroundColor=none;labelBorderColor=none;fontFamily=Tahoma;fontSize=40;fontColor=#FFFFFF;strokeColor=#6c8ebf;strokeWidth=12;fillColor=#dae8fc;entryX=0;entryY=0.5;entryDx=0;entryDy=0;gradientColor=#7ea6e0;" parent="1" source="fq6MFtSMGeEJQBp6nKeb-8" target="fq6MFtSMGeEJQBp6nKeb-15" edge="1">
          <mxGeometry relative="1" as="geometry">
            <Array as="points">
              <mxPoint x="-50" y="2138" />
            </Array>
          </mxGeometry>
        </mxCell>
        <UserObject label="" lucidchartObjectId="zPBlIr_iES5A" id="fq6MFtSMGeEJQBp6nKeb-8">
          <mxCell style="html=1;overflow=block;blockSpacing=1;whiteSpace=wrap;shape=image;fontSize=40;spacing=0;strokeOpacity=100;strokeWidth=12;image=https://images.lucid.app/images/d830c5dc-a002-4b21-b30c-91d05a7e0c28/content;sketch=0;fillColor=#dae8fc;strokeColor=#6c8ebf;gradientColor=#7ea6e0;fontFamily=Tahoma;fontStyle=1;labelBackgroundColor=none;labelBorderColor=none;" parent="1" vertex="1">
            <mxGeometry x="-503" y="553" width="546" height="1048" as="geometry" />
          </mxCell>
        </UserObject>
        <UserObject label="Signup #002" lucidchartObjectId="oUBlLS6tGnnC" id="fq6MFtSMGeEJQBp6nKeb-9">
          <mxCell style="html=1;overflow=block;blockSpacing=1;whiteSpace=wrap;fontSize=40;fontStyle=3;spacing=3.8;strokeOpacity=0;fillOpacity=0;strokeWidth=12;sketch=0;fillColor=#dae8fc;strokeColor=#6c8ebf;gradientColor=#7ea6e0;fontFamily=Tahoma;labelBackgroundColor=none;labelBorderColor=none;" parent="1" vertex="1">
            <mxGeometry x="330" y="269" width="411" height="131" as="geometry" />
          </mxCell>
        </UserObject>
        <UserObject label="Start" lucidchartObjectId="pZBlZzQM5mkw" id="fq6MFtSMGeEJQBp6nKeb-10">
          <mxCell style="html=1;overflow=block;blockSpacing=1;whiteSpace=wrap;fontSize=40;fontStyle=3;spacing=3.8;strokeOpacity=0;fillOpacity=0;strokeWidth=12;sketch=0;fillColor=#dae8fc;strokeColor=#6c8ebf;gradientColor=#7ea6e0;fontFamily=Tahoma;labelBackgroundColor=none;labelBorderColor=none;" parent="1" vertex="1">
            <mxGeometry x="-629" y="112" width="292" height="71" as="geometry" />
          </mxCell>
        </UserObject>
        <UserObject label="" lucidchartObjectId="61BlPtlsgEvN" id="fq6MFtSMGeEJQBp6nKeb-11">
          <mxCell style="html=1;jettySize=18;whiteSpace=wrap;fontSize=40;strokeOpacity=100;strokeWidth=12;rounded=1;arcSize=24;edgeStyle=orthogonalEdgeStyle;startArrow=none;endArrow=block;endFill=1;exitX=0.5;exitY=1;entryX=0.676;entryY=0.002;entryPerimeter=0;labelBackgroundColor=none;fontColor=#143642;sketch=0;fillColor=#dae8fc;strokeColor=#6c8ebf;gradientColor=#7ea6e0;fontFamily=Tahoma;fontStyle=1;labelBorderColor=none;exitDx=0;exitDy=0;" parent="1" source="fq6MFtSMGeEJQBp6nKeb-1" target="fq6MFtSMGeEJQBp6nKeb-8" edge="1">
            <mxGeometry width="100" height="100" relative="1" as="geometry">
              <Array as="points" />
              <mxPoint x="-81.5" y="276.3899999999999" as="sourcePoint" />
            </mxGeometry>
          </mxCell>
        </UserObject>
        <UserObject label="verfication code #003" lucidchartObjectId="52BltrEjEASa" id="fq6MFtSMGeEJQBp6nKeb-12">
          <mxCell style="html=1;overflow=block;blockSpacing=1;whiteSpace=wrap;fontSize=40;fontStyle=3;spacing=3.8;strokeOpacity=0;fillOpacity=0;strokeWidth=12;sketch=0;fillColor=#dae8fc;strokeColor=#6c8ebf;gradientColor=#7ea6e0;fontFamily=Tahoma;labelBackgroundColor=none;labelBorderColor=none;" parent="1" vertex="1">
            <mxGeometry x="1159" y="250" width="411" height="131" as="geometry" />
          </mxCell>
        </UserObject>
        <mxCell id="fq6MFtSMGeEJQBp6nKeb-13" style="edgeStyle=orthogonalEdgeStyle;curved=0;rounded=1;sketch=0;orthogonalLoop=1;jettySize=auto;html=1;labelBackgroundColor=none;labelBorderColor=none;fontFamily=Tahoma;fontSize=40;fontColor=#FFFFFF;strokeColor=#6c8ebf;strokeWidth=12;fillColor=#dae8fc;gradientColor=#7ea6e0;" parent="1" source="fq6MFtSMGeEJQBp6nKeb-15" target="fq6MFtSMGeEJQBp6nKeb-3" edge="1">
          <mxGeometry relative="1" as="geometry">
            <Array as="points">
              <mxPoint x="230" y="1830" />
              <mxPoint x="410" y="1830" />
            </Array>
          </mxGeometry>
        </mxCell>
        <mxCell id="fq6MFtSMGeEJQBp6nKeb-14" style="edgeStyle=orthogonalEdgeStyle;curved=0;rounded=1;sketch=0;orthogonalLoop=1;jettySize=auto;html=1;labelBackgroundColor=none;labelBorderColor=none;fontFamily=Tahoma;fontSize=40;fontColor=#FFFFFF;strokeColor=#6c8ebf;strokeWidth=12;fillColor=#dae8fc;entryX=0.5;entryY=1;entryDx=0;entryDy=0;exitX=1;exitY=0.5;exitDx=0;exitDy=0;gradientColor=#7ea6e0;" parent="1" source="fq6MFtSMGeEJQBp6nKeb-15" target="fq6MFtSMGeEJQBp6nKeb-4" edge="1">
          <mxGeometry relative="1" as="geometry">
            <mxPoint x="840" y="2020" as="targetPoint" />
            <Array as="points">
              <mxPoint x="2220" y="2138" />
              <mxPoint x="2220" y="1890" />
              <mxPoint x="2878" y="1890" />
            </Array>
          </mxGeometry>
        </mxCell>
        <UserObject label="already member" lucidchartObjectId="J4BlwHjFmk7b" id="fq6MFtSMGeEJQBp6nKeb-15">
          <mxCell style="html=1;overflow=block;blockSpacing=1;whiteSpace=wrap;rhombus;fontSize=40;align=center;spacing=3.8;strokeOpacity=100;fillOpacity=100;rounded=1;absoluteArcSize=1;arcSize=12;strokeWidth=12;sketch=0;fillColor=#dae8fc;strokeColor=#6c8ebf;gradientColor=#7ea6e0;fontFamily=Tahoma;fontStyle=1;labelBackgroundColor=none;labelBorderColor=none;" parent="1" vertex="1">
            <mxGeometry x="70" y="1980" width="320.47" height="317" as="geometry" />
          </mxCell>
        </UserObject>
        <mxCell id="fq6MFtSMGeEJQBp6nKeb-16" style="edgeStyle=orthogonalEdgeStyle;curved=0;rounded=1;sketch=0;orthogonalLoop=1;jettySize=auto;html=1;entryX=0.5;entryY=0;entryDx=0;entryDy=0;labelBackgroundColor=none;labelBorderColor=none;fontFamily=Tahoma;fontSize=40;fontColor=#143642;strokeColor=#6c8ebf;strokeWidth=12;fillColor=#dae8fc;gradientColor=#7ea6e0;" parent="1" source="fq6MFtSMGeEJQBp6nKeb-8" target="fq6MFtSMGeEJQBp6nKeb-30" edge="1">
          <mxGeometry relative="1" as="geometry">
            <mxPoint x="-330" y="1510" as="sourcePoint" />
          </mxGeometry>
        </mxCell>
        <UserObject label="" lucidchartObjectId="V_BleUQ3f8s7" id="fq6MFtSMGeEJQBp6nKeb-17">
          <mxCell style="html=1;overflow=block;blockSpacing=1;whiteSpace=wrap;ellipse;fontSize=40;align=center;spacing=3.8;strokeOpacity=100;fillOpacity=100;rounded=1;absoluteArcSize=1;arcSize=12;strokeWidth=12;sketch=0;fillColor=#dae8fc;strokeColor=#6c8ebf;gradientColor=#7ea6e0;fontFamily=Tahoma;fontStyle=1;labelBackgroundColor=none;labelBorderColor=none;" parent="1" vertex="1">
            <mxGeometry x="-252.5" y="1521" width="45" height="80" as="geometry" />
          </mxCell>
        </UserObject>
        <UserObject label="social login #006" lucidchartObjectId="V~Bl52Lk4.BB" id="fq6MFtSMGeEJQBp6nKeb-18">
          <mxCell style="html=1;overflow=block;blockSpacing=1;whiteSpace=wrap;fontSize=40;fontStyle=3;spacing=3.8;strokeOpacity=0;fillOpacity=0;strokeWidth=12;sketch=0;fillColor=#dae8fc;strokeColor=#6c8ebf;gradientColor=#7ea6e0;fontFamily=Tahoma;labelBackgroundColor=none;labelBorderColor=none;" parent="1" vertex="1">
            <mxGeometry x="-720" y="1810" width="437" height="131" as="geometry" />
          </mxCell>
        </UserObject>
        <UserObject label="Profile #009" lucidchartObjectId=".rCl75YGOkAJ" id="fq6MFtSMGeEJQBp6nKeb-19">
          <mxCell style="html=1;overflow=block;blockSpacing=1;whiteSpace=wrap;fontSize=40;fontStyle=3;spacing=3.8;strokeOpacity=0;fillOpacity=0;strokeWidth=12;sketch=0;fillColor=#dae8fc;strokeColor=#6c8ebf;gradientColor=#7ea6e0;fontFamily=Tahoma;labelBackgroundColor=none;labelBorderColor=none;" parent="1" vertex="1">
            <mxGeometry x="1788" y="2443" width="291" height="71" as="geometry" />
          </mxCell>
        </UserObject>
        <mxCell id="fq6MFtSMGeEJQBp6nKeb-20" style="edgeStyle=orthogonalEdgeStyle;curved=0;rounded=1;sketch=0;orthogonalLoop=1;jettySize=auto;html=1;labelBackgroundColor=none;labelBorderColor=none;fontFamily=Tahoma;fontSize=77;fontColor=#FFFFFF;strokeColor=#6c8ebf;strokeWidth=12;fillColor=#dae8fc;gradientColor=#7ea6e0;" parent="1" source="fq6MFtSMGeEJQBp6nKeb-21" target="fq6MFtSMGeEJQBp6nKeb-6" edge="1">
          <mxGeometry relative="1" as="geometry" />
        </mxCell>
        <UserObject label="" lucidchartObjectId="UzClAnWyjFyW" id="fq6MFtSMGeEJQBp6nKeb-21">
          <mxCell style="html=1;overflow=block;blockSpacing=1;whiteSpace=wrap;shape=image;fontSize=40;spacing=0;strokeOpacity=100;strokeWidth=12;image=https://images.lucid.app/images/dce233a8-9de5-4930-a580-6b7612a08168/content;sketch=0;fillColor=#dae8fc;strokeColor=#6c8ebf;gradientColor=#7ea6e0;fontFamily=Tahoma;fontStyle=1;labelBackgroundColor=none;labelBorderColor=none;clipPath=inset(3% 0.72% 5% 0%);aspect=fixed;" parent="1" vertex="1">
            <mxGeometry x="2614" y="2580" width="523.1811594202899" height="1054" as="geometry" />
          </mxCell>
        </UserObject>
        <UserObject label="Drawer #008" lucidchartObjectId="dCCl4ge0bUK~" id="fq6MFtSMGeEJQBp6nKeb-22">
          <mxCell style="html=1;overflow=block;blockSpacing=1;whiteSpace=wrap;fontSize=40;fontStyle=3;spacing=3.8;strokeOpacity=0;fillOpacity=0;strokeWidth=12;sketch=0;fillColor=#dae8fc;strokeColor=#6c8ebf;gradientColor=#7ea6e0;fontFamily=Tahoma;labelBackgroundColor=none;labelBorderColor=none;" parent="1" vertex="1">
            <mxGeometry x="2620" y="2448" width="411" height="131" as="geometry" />
          </mxCell>
        </UserObject>
        <UserObject label="" lucidchartObjectId="FKCl9Uuiohlz" id="fq6MFtSMGeEJQBp6nKeb-23">
          <mxCell style="html=1;overflow=block;blockSpacing=1;whiteSpace=wrap;ellipse;fontSize=40;align=center;spacing=3.8;strokeOpacity=100;fillOpacity=100;rounded=1;absoluteArcSize=1;arcSize=12;strokeWidth=12;sketch=0;fillColor=#dae8fc;strokeColor=#6c8ebf;gradientColor=#7ea6e0;fontFamily=Tahoma;fontStyle=1;labelBackgroundColor=none;labelBorderColor=none;" parent="1" vertex="1">
            <mxGeometry x="1726.5" y="2660" width="68" height="92" as="geometry" />
          </mxCell>
        </UserObject>
        <UserObject label="" lucidchartObjectId="KKCl2C5J.IQp" id="fq6MFtSMGeEJQBp6nKeb-24">
          <mxCell style="html=1;jettySize=18;whiteSpace=wrap;fontSize=40;strokeOpacity=100;strokeWidth=12;rounded=1;arcSize=24;edgeStyle=orthogonalEdgeStyle;startArrow=none;endArrow=block;endFill=1;exitX=-0.004;exitY=0.5;exitPerimeter=0;entryX=1.001;entryY=0.5;entryPerimeter=0;labelBackgroundColor=none;fontColor=#143642;sketch=0;fillColor=#dae8fc;strokeColor=#6c8ebf;gradientColor=#7ea6e0;fontFamily=Tahoma;fontStyle=1;labelBorderColor=none;" parent="1" source="fq6MFtSMGeEJQBp6nKeb-23" target="fq6MFtSMGeEJQBp6nKeb-25" edge="1">
            <mxGeometry width="100" height="100" relative="1" as="geometry">
              <Array as="points" />
            </mxGeometry>
          </mxCell>
        </UserObject>
        <UserObject label="" lucidchartObjectId="6NClWh_kNiGp" id="fq6MFtSMGeEJQBp6nKeb-25">
          <mxCell style="html=1;overflow=block;blockSpacing=1;whiteSpace=wrap;fontSize=40;align=center;spacing=3.8;strokeOpacity=100;fillOpacity=100;rounded=1;absoluteArcSize=1;arcSize=12;strokeWidth=12;sketch=0;fillColor=#dae8fc;strokeColor=#6c8ebf;gradientColor=#7ea6e0;fontFamily=Tahoma;fontStyle=1;labelBackgroundColor=none;labelBorderColor=none;" parent="1" vertex="1">
            <mxGeometry x="970" y="2410" width="528" height="202" as="geometry" />
          </mxCell>
        </UserObject>
        <UserObject label="chnage profile status " lucidchartObjectId="_NCl8koIetGy" id="fq6MFtSMGeEJQBp6nKeb-26">
          <mxCell style="html=1;overflow=block;blockSpacing=1;whiteSpace=wrap;fontSize=40;align=center;spacing=3.8;strokeOpacity=0;fillOpacity=0;rounded=1;absoluteArcSize=1;arcSize=12;strokeWidth=12;sketch=0;fillColor=#dae8fc;strokeColor=#6c8ebf;gradientColor=#7ea6e0;fontFamily=Tahoma;fontStyle=1;labelBackgroundColor=none;labelBorderColor=none;" parent="1" vertex="1">
            <mxGeometry x="1004.5" y="2463" width="459" height="93" as="geometry" />
          </mxCell>
        </UserObject>
        <UserObject label="" lucidchartObjectId="p0ClKfQwhV1B" id="fq6MFtSMGeEJQBp6nKeb-27">
          <mxCell style="html=1;overflow=block;blockSpacing=1;whiteSpace=wrap;shape=image;fontSize=40;spacing=0;strokeOpacity=100;strokeWidth=12;image=https://images.lucid.app/images/c007181f-e54e-4c8d-aa41-6ac1f2ed544f/content;sketch=0;fillColor=#dae8fc;strokeColor=#6c8ebf;gradientColor=#7ea6e0;fontFamily=Tahoma;fontStyle=1;labelBackgroundColor=none;labelBorderColor=none;" parent="1" vertex="1">
            <mxGeometry x="160" y="2676" width="509" height="1106" as="geometry" />
          </mxCell>
        </UserObject>
        <UserObject label="edit profile #011" lucidchartObjectId="W1ClHOm5oA_N" id="fq6MFtSMGeEJQBp6nKeb-28">
          <mxCell style="html=1;overflow=block;blockSpacing=1;whiteSpace=wrap;fontSize=40;fontStyle=3;align=center;spacing=3.8;strokeOpacity=0;fillOpacity=0;strokeWidth=12;sketch=0;fillColor=#dae8fc;strokeColor=#6c8ebf;gradientColor=#7ea6e0;fontFamily=Tahoma;labelBackgroundColor=none;labelBorderColor=none;" parent="1" vertex="1">
            <mxGeometry x="124" y="2566" width="526" height="89" as="geometry" />
          </mxCell>
        </UserObject>
        <UserObject label="&lt;font style=&quot;font-size: 77px;&quot;&gt;Sprint #001-011&lt;br&gt;&lt;/font&gt;" lucidchartObjectId="66ClsP1cCvKw" id="fq6MFtSMGeEJQBp6nKeb-29">
          <mxCell style="html=1;overflow=block;blockSpacing=1;whiteSpace=wrap;fontSize=40;align=center;spacing=3.8;strokeOpacity=0;fillOpacity=0;rounded=1;absoluteArcSize=1;arcSize=12;strokeWidth=12;sketch=0;fillColor=#dae8fc;strokeColor=#6c8ebf;gradientColor=#7ea6e0;fontFamily=Tahoma;fontStyle=1;labelBackgroundColor=default;labelBorderColor=default;" parent="1" vertex="1">
            <mxGeometry x="941" y="50" width="847" height="120" as="geometry" />
          </mxCell>
        </UserObject>
        <UserObject label="" lucidchartObjectId="LaDl3BnZtKWA" id="fq6MFtSMGeEJQBp6nKeb-30">
          <mxCell style="html=1;overflow=block;blockSpacing=1;whiteSpace=wrap;fontSize=40;align=center;spacing=3.8;strokeOpacity=100;fillOpacity=100;rounded=1;absoluteArcSize=1;arcSize=12;strokeWidth=12;sketch=0;fillColor=#dae8fc;strokeColor=#6c8ebf;gradientColor=#7ea6e0;fontFamily=Tahoma;fontStyle=1;labelBackgroundColor=none;labelBorderColor=none;" parent="1" vertex="1">
            <mxGeometry x="-689" y="1950" width="467" height="182" as="geometry" />
          </mxCell>
        </UserObject>
        <UserObject label="login with google and facebook" lucidchartObjectId="LaDlg9LTs0Lg" id="fq6MFtSMGeEJQBp6nKeb-31">
          <mxCell style="html=1;overflow=block;blockSpacing=1;whiteSpace=wrap;fontSize=40;align=center;spacing=3.8;strokeOpacity=0;fillOpacity=0;rounded=1;absoluteArcSize=1;arcSize=12;strokeWidth=12;sketch=0;fillColor=#dae8fc;strokeColor=#6c8ebf;gradientColor=#7ea6e0;fontFamily=Tahoma;fontStyle=1;labelBackgroundColor=none;labelBorderColor=none;" parent="1" vertex="1">
            <mxGeometry x="-660" y="1996.5" width="399" height="89" as="geometry" />
          </mxCell>
        </UserObject>
        <UserObject label="" lucidchartObjectId="9oWl2Q7ICwew" id="fq6MFtSMGeEJQBp6nKeb-32">
          <mxCell style="html=1;overflow=block;blockSpacing=1;whiteSpace=wrap;shape=image;fontSize=40;spacing=0;strokeOpacity=100;strokeWidth=12;image=https://images.lucid.app/images/3665cb9d-9fb6-4fe8-80f6-b1fa9715e3b3/content;sketch=0;fillColor=#dae8fc;strokeColor=#6c8ebf;gradientColor=#7ea6e0;fontFamily=Tahoma;fontStyle=1;labelBackgroundColor=none;labelBorderColor=none;" parent="1" vertex="1">
            <mxGeometry x="1082" y="400" width="576" height="1099" as="geometry" />
          </mxCell>
        </UserObject>
        <UserObject label="already exist" lucidchartObjectId="3sWlQGHHEDR3" id="fq6MFtSMGeEJQBp6nKeb-33">
          <mxCell style="html=1;overflow=block;blockSpacing=1;whiteSpace=wrap;rhombus;fontSize=40;align=center;spacing=3.8;strokeOpacity=100;fillOpacity=100;rounded=1;absoluteArcSize=1;arcSize=12;strokeWidth=12;sketch=0;fillColor=#dae8fc;strokeColor=#6c8ebf;gradientColor=#7ea6e0;fontFamily=Tahoma;fontStyle=1;labelBackgroundColor=none;labelBorderColor=none;" parent="1" vertex="1">
            <mxGeometry x="880" y="1650" width="205" height="226" as="geometry" />
          </mxCell>
        </UserObject>
        <UserObject label="" lucidchartObjectId="QtWlqtnGpBq8" id="fq6MFtSMGeEJQBp6nKeb-34">
          <mxCell style="html=1;jettySize=18;whiteSpace=wrap;fontSize=40;strokeOpacity=100;strokeWidth=12;rounded=1;arcSize=24;edgeStyle=orthogonalEdgeStyle;startArrow=none;endArrow=block;endFill=1;exitX=0.991;exitY=0.5;exitPerimeter=0;entryX=0.411;entryY=1.006;entryPerimeter=0;labelBackgroundColor=none;fontColor=#143642;sketch=0;fillColor=#dae8fc;strokeColor=#6c8ebf;gradientColor=#7ea6e0;fontFamily=Tahoma;fontStyle=1;labelBorderColor=none;entryDx=0;entryDy=0;" parent="1" source="fq6MFtSMGeEJQBp6nKeb-33" target="fq6MFtSMGeEJQBp6nKeb-32" edge="1">
            <mxGeometry width="100" height="100" relative="1" as="geometry">
              <Array as="points">
                <mxPoint x="1083" y="1740" />
                <mxPoint x="1318" y="1740" />
              </Array>
              <mxPoint x="1308" y="1687" as="targetPoint" />
            </mxGeometry>
          </mxCell>
        </UserObject>
        <UserObject label="" lucidchartObjectId="GuWleS5Tju3h" id="fq6MFtSMGeEJQBp6nKeb-35">
          <mxCell style="html=1;jettySize=18;whiteSpace=wrap;fontSize=40;strokeOpacity=100;strokeWidth=12;rounded=1;arcSize=24;edgeStyle=orthogonalEdgeStyle;startArrow=none;endArrow=block;endFill=1;exitX=0.009;exitY=0.5;exitPerimeter=0;entryX=0.683;entryY=1;entryPerimeter=0;labelBackgroundColor=none;fontColor=#143642;sketch=0;fillColor=#dae8fc;strokeColor=#6c8ebf;gradientColor=#7ea6e0;fontFamily=Tahoma;fontStyle=1;labelBorderColor=none;" parent="1" source="fq6MFtSMGeEJQBp6nKeb-33" target="fq6MFtSMGeEJQBp6nKeb-3" edge="1">
            <mxGeometry width="100" height="100" relative="1" as="geometry">
              <Array as="points" />
            </mxGeometry>
          </mxCell>
        </UserObject>
        <UserObject label="" lucidchartObjectId="fAWl6AqmR4pw" id="fq6MFtSMGeEJQBp6nKeb-36">
          <mxCell style="html=1;jettySize=18;whiteSpace=wrap;fontSize=40;strokeOpacity=100;strokeWidth=12;rounded=1;arcSize=24;edgeStyle=orthogonalEdgeStyle;startArrow=none;endArrow=block;endFill=1;exitX=1;exitY=0.5;exitPerimeter=0;entryX=0.5;entryY=0.009;entryPerimeter=0;labelBackgroundColor=none;fontColor=#143642;sketch=0;fillColor=#dae8fc;strokeColor=#6c8ebf;gradientColor=#7ea6e0;fontFamily=Tahoma;fontStyle=1;labelBorderColor=none;" parent="1" source="fq6MFtSMGeEJQBp6nKeb-3" target="fq6MFtSMGeEJQBp6nKeb-33" edge="1">
            <mxGeometry width="100" height="100" relative="1" as="geometry">
              <Array as="points" />
            </mxGeometry>
          </mxCell>
        </UserObject>
        <UserObject label="" lucidchartObjectId="zBWld48ICDzk" id="fq6MFtSMGeEJQBp6nKeb-37">
          <mxCell style="html=1;overflow=block;blockSpacing=1;whiteSpace=wrap;ellipse;fontSize=40;align=center;spacing=3.8;strokeOpacity=100;fillOpacity=100;rounded=1;absoluteArcSize=1;arcSize=12;strokeWidth=12;sketch=0;fillColor=#dae8fc;strokeColor=#6c8ebf;gradientColor=#7ea6e0;fontFamily=Tahoma;fontStyle=1;labelBackgroundColor=none;labelBorderColor=none;" parent="1" vertex="1">
            <mxGeometry x="1580" y="454" width="45" height="72" as="geometry" />
          </mxCell>
        </UserObject>
        <UserObject label="resend code after 30s" lucidchartObjectId="zBWlXu0-X2YC" id="fq6MFtSMGeEJQBp6nKeb-38">
          <mxCell style="html=1;overflow=block;blockSpacing=1;whiteSpace=wrap;fontSize=40;align=center;spacing=3.8;strokeOpacity=100;fillOpacity=100;rounded=1;absoluteArcSize=1;arcSize=12;strokeWidth=12;sketch=0;fillColor=#dae8fc;strokeColor=#6c8ebf;gradientColor=#7ea6e0;fontFamily=Tahoma;fontStyle=1;labelBackgroundColor=none;labelBorderColor=none;" parent="1" vertex="1">
            <mxGeometry x="1920" y="391" width="467" height="268" as="geometry" />
          </mxCell>
        </UserObject>
        <UserObject label="" lucidchartObjectId="YBWlk.UdmBpB" id="fq6MFtSMGeEJQBp6nKeb-39">
          <mxCell style="html=1;jettySize=18;whiteSpace=wrap;fontSize=40;strokeOpacity=100;strokeWidth=12;rounded=1;arcSize=24;edgeStyle=orthogonalEdgeStyle;startArrow=none;endArrow=block;endFill=1;entryX=-0.001;entryY=0.5;entryPerimeter=0;labelBackgroundColor=none;fontColor=#143642;sketch=0;fillColor=#dae8fc;strokeColor=#6c8ebf;gradientColor=#7ea6e0;fontFamily=Tahoma;fontStyle=1;labelBorderColor=none;exitX=1;exitY=0.5;exitDx=0;exitDy=0;" parent="1" source="fq6MFtSMGeEJQBp6nKeb-37" target="fq6MFtSMGeEJQBp6nKeb-38" edge="1">
            <mxGeometry width="100" height="100" relative="1" as="geometry">
              <Array as="points">
                <mxPoint x="1780" y="490" />
                <mxPoint x="1780" y="525" />
              </Array>
            </mxGeometry>
          </mxCell>
        </UserObject>
        <mxCell id="fq6MFtSMGeEJQBp6nKeb-40" style="edgeStyle=orthogonalEdgeStyle;curved=0;rounded=1;sketch=0;orthogonalLoop=1;jettySize=auto;html=1;labelBackgroundColor=none;labelBorderColor=none;fontFamily=Tahoma;fontSize=77;fontColor=#FFFFFF;strokeColor=#6c8ebf;strokeWidth=12;fillColor=#dae8fc;gradientColor=#7ea6e0;" parent="1" source="fq6MFtSMGeEJQBp6nKeb-41" edge="1">
          <mxGeometry relative="1" as="geometry">
            <mxPoint x="1490" y="1520" as="targetPoint" />
          </mxGeometry>
        </mxCell>
        <UserObject label="validation " lucidchartObjectId="9CWlXjt36pLc" id="fq6MFtSMGeEJQBp6nKeb-41">
          <mxCell style="html=1;overflow=block;blockSpacing=1;whiteSpace=wrap;rhombus;fontSize=40;align=center;spacing=3.8;strokeOpacity=100;fillOpacity=100;rounded=1;absoluteArcSize=1;arcSize=12;strokeWidth=12;sketch=0;fillColor=#dae8fc;strokeColor=#6c8ebf;gradientColor=#7ea6e0;fontFamily=Tahoma;fontStyle=1;labelBackgroundColor=none;labelBorderColor=none;" parent="1" vertex="1">
            <mxGeometry x="1983" y="1528" width="283" height="253" as="geometry" />
          </mxCell>
        </UserObject>
        <UserObject label="" lucidchartObjectId="jEWlu9G_LF2R" id="fq6MFtSMGeEJQBp6nKeb-42">
          <mxCell style="html=1;jettySize=18;whiteSpace=wrap;fontSize=40;strokeOpacity=100;strokeWidth=12;rounded=1;arcSize=24;edgeStyle=orthogonalEdgeStyle;startArrow=none;endArrow=block;endFill=1;exitX=1;exitY=0.5;exitPerimeter=0;entryX=0.5;entryY=0.007;entryPerimeter=0;labelBackgroundColor=none;fontColor=#143642;sketch=0;fillColor=#dae8fc;strokeColor=#6c8ebf;gradientColor=#7ea6e0;fontFamily=Tahoma;fontStyle=1;labelBorderColor=none;" parent="1" source="fq6MFtSMGeEJQBp6nKeb-32" target="fq6MFtSMGeEJQBp6nKeb-41" edge="1">
            <mxGeometry width="100" height="100" relative="1" as="geometry">
              <Array as="points" />
            </mxGeometry>
          </mxCell>
        </UserObject>
        <UserObject label="" lucidchartObjectId="VFWlBxhmdryJ" id="fq6MFtSMGeEJQBp6nKeb-43">
          <mxCell style="html=1;jettySize=18;whiteSpace=wrap;fontSize=40;strokeOpacity=100;strokeWidth=12;rounded=1;arcSize=24;edgeStyle=orthogonalEdgeStyle;startArrow=none;endArrow=block;endFill=1;exitX=0.992;exitY=0.5;exitPerimeter=0;entryX=0.5;entryY=0.999;entryPerimeter=0;labelBackgroundColor=none;fontColor=#143642;sketch=0;fillColor=#dae8fc;strokeColor=#6c8ebf;gradientColor=#7ea6e0;fontFamily=Tahoma;fontStyle=1;labelBorderColor=none;" parent="1" source="fq6MFtSMGeEJQBp6nKeb-41" target="fq6MFtSMGeEJQBp6nKeb-45" edge="1">
            <mxGeometry width="100" height="100" relative="1" as="geometry">
              <Array as="points" />
            </mxGeometry>
          </mxCell>
        </UserObject>
        <UserObject label="" lucidchartObjectId="7FWliwNCN6wA" id="fq6MFtSMGeEJQBp6nKeb-44">
          <mxCell style="html=1;jettySize=18;whiteSpace=wrap;fontSize=40;strokeOpacity=100;strokeWidth=12;rounded=1;arcSize=24;edgeStyle=orthogonalEdgeStyle;startArrow=none;endArrow=block;endFill=1;exitX=0.5;exitY=0.001;exitPerimeter=0;entryX=0;entryY=0.5;entryPerimeter=0;labelBackgroundColor=none;fontColor=#143642;sketch=0;fillColor=#dae8fc;strokeColor=#6c8ebf;gradientColor=#7ea6e0;fontFamily=Tahoma;fontStyle=1;labelBorderColor=none;" parent="1" source="fq6MFtSMGeEJQBp6nKeb-45" target="fq6MFtSMGeEJQBp6nKeb-4" edge="1">
            <mxGeometry width="100" height="100" relative="1" as="geometry">
              <Array as="points" />
            </mxGeometry>
          </mxCell>
        </UserObject>
        <UserObject label="yes" lucidchartObjectId="4FWllu_8.raI" id="fq6MFtSMGeEJQBp6nKeb-45">
          <mxCell style="html=1;overflow=block;blockSpacing=1;whiteSpace=wrap;fontSize=40;align=center;spacing=3.8;strokeOpacity=0;fillOpacity=0;rounded=1;absoluteArcSize=1;arcSize=12;strokeWidth=12;sketch=0;fillColor=#dae8fc;strokeColor=#6c8ebf;gradientColor=#7ea6e0;fontFamily=Tahoma;fontStyle=1;labelBackgroundColor=none;labelBorderColor=none;" parent="1" vertex="1">
            <mxGeometry x="2352" y="1413" width="156" height="58" as="geometry" />
          </mxCell>
        </UserObject>
        <UserObject label="home #005" lucidchartObjectId="BGWlobyNr1Gc" id="fq6MFtSMGeEJQBp6nKeb-46">
          <mxCell style="html=1;overflow=block;blockSpacing=1;whiteSpace=wrap;fontSize=40;fontStyle=3;spacing=3.8;strokeOpacity=0;fillOpacity=0;strokeWidth=12;sketch=0;fillColor=#dae8fc;strokeColor=#6c8ebf;gradientColor=#7ea6e0;fontFamily=Tahoma;labelBackgroundColor=none;labelBorderColor=none;" parent="1" vertex="1">
            <mxGeometry x="2659" y="430" width="411" height="120" as="geometry" />
          </mxCell>
        </UserObject>
        <UserObject label="verification code #004" lucidchartObjectId="yKWlg~o9HHeL" id="fq6MFtSMGeEJQBp6nKeb-47">
          <mxCell style="html=1;overflow=block;blockSpacing=1;whiteSpace=wrap;fontSize=40;fontStyle=3;spacing=3.8;strokeOpacity=0;fillOpacity=0;strokeWidth=12;sketch=0;fillColor=#dae8fc;strokeColor=#6c8ebf;gradientColor=#7ea6e0;fontFamily=Tahoma;labelBackgroundColor=none;labelBorderColor=none;" parent="1" vertex="1">
            <mxGeometry x="1910" y="260" width="411" height="131" as="geometry" />
          </mxCell>
        </UserObject>
        <UserObject label="" lucidchartObjectId="fMWlAo8O0sbQ" id="fq6MFtSMGeEJQBp6nKeb-48">
          <mxCell style="html=1;jettySize=18;whiteSpace=wrap;fontSize=40;strokeOpacity=100;strokeWidth=12;rounded=1;arcSize=24;edgeStyle=orthogonalEdgeStyle;startArrow=none;endArrow=block;endFill=1;exitX=0.98;exitY=0.5;exitPerimeter=0;entryX=0.5;entryY=0;entryPerimeter=0;labelBackgroundColor=none;fontColor=#143642;sketch=0;fillColor=#dae8fc;strokeColor=#6c8ebf;gradientColor=#7ea6e0;fontFamily=Tahoma;fontStyle=1;labelBorderColor=none;" parent="1" source="fq6MFtSMGeEJQBp6nKeb-4" target="fq6MFtSMGeEJQBp6nKeb-50" edge="1">
            <mxGeometry width="100" height="100" relative="1" as="geometry">
              <Array as="points" />
            </mxGeometry>
          </mxCell>
        </UserObject>
        <UserObject label="" lucidchartObjectId="DMWlLgYLaFLS" id="fq6MFtSMGeEJQBp6nKeb-49">
          <mxCell style="html=1;jettySize=18;whiteSpace=wrap;fontSize=40;strokeOpacity=100;strokeWidth=12;rounded=1;arcSize=24;edgeStyle=orthogonalEdgeStyle;startArrow=none;endArrow=block;endFill=1;exitX=0.5;exitY=1;exitPerimeter=0;entryX=0.5;entryY=0;entryPerimeter=0;labelBackgroundColor=none;fontColor=#143642;sketch=0;fillColor=#dae8fc;strokeColor=#6c8ebf;gradientColor=#7ea6e0;fontFamily=Tahoma;fontStyle=1;labelBorderColor=none;" parent="1" source="fq6MFtSMGeEJQBp6nKeb-50" target="fq6MFtSMGeEJQBp6nKeb-22" edge="1">
            <mxGeometry width="100" height="100" relative="1" as="geometry">
              <Array as="points" />
            </mxGeometry>
          </mxCell>
        </UserObject>
        <UserObject label="Click drawer " lucidchartObjectId="zMWlPsoqNpWq" id="fq6MFtSMGeEJQBp6nKeb-50">
          <mxCell style="html=1;overflow=block;blockSpacing=1;whiteSpace=wrap;fontSize=40;align=center;spacing=3.8;strokeOpacity=0;fillOpacity=0;rounded=1;absoluteArcSize=1;arcSize=12;strokeWidth=12;sketch=0;fillColor=#dae8fc;strokeColor=#6c8ebf;gradientColor=#7ea6e0;fontFamily=Tahoma;fontStyle=1;labelBackgroundColor=none;labelBorderColor=none;" parent="1" vertex="1">
            <mxGeometry x="3170" y="1780" width="156" height="128" as="geometry" />
          </mxCell>
        </UserObject>
        <UserObject label="No" lucidchartObjectId="4FWllu_8.raI" id="fq6MFtSMGeEJQBp6nKeb-51">
          <mxCell style="html=1;overflow=block;blockSpacing=1;whiteSpace=wrap;fontSize=40;align=center;spacing=3.8;strokeOpacity=0;fillOpacity=0;rounded=1;absoluteArcSize=1;arcSize=12;strokeWidth=12;sketch=0;fillColor=#dae8fc;strokeColor=#6c8ebf;gradientColor=#7ea6e0;fontFamily=Tahoma;fontStyle=1;labelBackgroundColor=none;labelBorderColor=none;" parent="1" vertex="1">
            <mxGeometry x="1708" y="1580" width="156" height="58" as="geometry" />
          </mxCell>
        </UserObject>
        <UserObject label="No" lucidchartObjectId="4FWllu_8.raI" id="fq6MFtSMGeEJQBp6nKeb-52">
          <mxCell style="html=1;overflow=block;blockSpacing=1;whiteSpace=wrap;fontSize=40;align=center;spacing=3.8;strokeOpacity=0;fillOpacity=0;rounded=1;absoluteArcSize=1;arcSize=12;strokeWidth=12;sketch=0;fillColor=#dae8fc;strokeColor=#6c8ebf;gradientColor=#7ea6e0;fontFamily=Tahoma;fontStyle=1;labelBackgroundColor=none;labelBorderColor=none;" parent="1" vertex="1">
            <mxGeometry x="1163" y="1670" width="156" height="58" as="geometry" />
          </mxCell>
        </UserObject>
        <UserObject label="Yes" lucidchartObjectId="4FWllu_8.raI" id="fq6MFtSMGeEJQBp6nKeb-53">
          <mxCell style="html=1;overflow=block;blockSpacing=1;whiteSpace=wrap;fontSize=40;align=center;spacing=3.8;strokeOpacity=0;fillOpacity=0;rounded=1;absoluteArcSize=1;arcSize=12;strokeWidth=12;sketch=0;fillColor=#dae8fc;strokeColor=#6c8ebf;gradientColor=#7ea6e0;fontFamily=Tahoma;fontStyle=1;labelBackgroundColor=none;labelBorderColor=none;" parent="1" vertex="1">
            <mxGeometry x="650" y="1684" width="156" height="58" as="geometry" />
          </mxCell>
        </UserObject>
        <UserObject label="No" lucidchartObjectId="4FWllu_8.raI" id="fq6MFtSMGeEJQBp6nKeb-54">
          <mxCell style="html=1;overflow=block;blockSpacing=1;whiteSpace=wrap;fontSize=40;align=center;spacing=3.8;strokeOpacity=0;fillOpacity=0;rounded=1;absoluteArcSize=1;arcSize=12;strokeWidth=12;sketch=0;fillColor=#dae8fc;strokeColor=#6c8ebf;gradientColor=#7ea6e0;fontFamily=Tahoma;fontStyle=1;labelBackgroundColor=none;labelBorderColor=none;" parent="1" vertex="1">
            <mxGeometry x="234.47000000000003" y="1752" width="156" height="58" as="geometry" />
          </mxCell>
        </UserObject>
        <UserObject label="Yes" lucidchartObjectId="4FWllu_8.raI" id="fq6MFtSMGeEJQBp6nKeb-55">
          <mxCell style="html=1;overflow=block;blockSpacing=1;whiteSpace=wrap;fontSize=40;align=center;spacing=3.8;strokeOpacity=0;fillOpacity=0;rounded=1;absoluteArcSize=1;arcSize=12;strokeWidth=12;sketch=0;fillColor=#dae8fc;strokeColor=#6c8ebf;gradientColor=#7ea6e0;fontFamily=Tahoma;fontStyle=1;labelBackgroundColor=none;labelBorderColor=none;" parent="1" vertex="1">
            <mxGeometry x="960" y="2060" width="156" height="58" as="geometry" />
          </mxCell>
        </UserObject>
        <UserObject label="Profile #010" lucidchartObjectId=".rCl75YGOkAJ" id="fq6MFtSMGeEJQBp6nKeb-56">
          <mxCell style="html=1;overflow=block;blockSpacing=1;whiteSpace=wrap;fontSize=40;fontStyle=3;spacing=3.8;strokeOpacity=0;fillOpacity=0;strokeWidth=12;sketch=0;fillColor=#dae8fc;strokeColor=#6c8ebf;gradientColor=#7ea6e0;fontFamily=Tahoma;labelBackgroundColor=none;labelBorderColor=none;" parent="1" vertex="1">
            <mxGeometry x="1070" y="2297" width="291" height="71" as="geometry" />
          </mxCell>
        </UserObject>
        <mxCell id="fq6MFtSMGeEJQBp6nKeb-57" style="edgeStyle=orthogonalEdgeStyle;curved=0;rounded=1;sketch=0;orthogonalLoop=1;jettySize=auto;html=1;entryX=0.5;entryY=0;entryDx=0;entryDy=0;labelBackgroundColor=none;labelBorderColor=none;fontFamily=Tahoma;fontSize=40;fontColor=#143642;strokeColor=#6c8ebf;strokeWidth=12;fillColor=#dae8fc;gradientColor=#7ea6e0;exitX=0;exitY=0.5;exitDx=0;exitDy=0;" parent="1" source="fq6MFtSMGeEJQBp6nKeb-60" target="fq6MFtSMGeEJQBp6nKeb-58" edge="1">
          <mxGeometry relative="1" as="geometry">
            <mxPoint x="-621.0000000000009" y="1030" as="sourcePoint" />
          </mxGeometry>
        </mxCell>
        <UserObject label="" lucidchartObjectId="LaDl3BnZtKWA" id="fq6MFtSMGeEJQBp6nKeb-58">
          <mxCell style="html=1;overflow=block;blockSpacing=1;whiteSpace=wrap;fontSize=40;align=center;spacing=3.8;strokeOpacity=100;fillOpacity=100;rounded=1;absoluteArcSize=1;arcSize=12;strokeWidth=12;sketch=0;fillColor=#dae8fc;strokeColor=#6c8ebf;gradientColor=#7ea6e0;fontFamily=Tahoma;fontStyle=1;labelBackgroundColor=none;labelBorderColor=none;" parent="1" vertex="1">
            <mxGeometry x="-1093" y="1390" width="467" height="182" as="geometry" />
          </mxCell>
        </UserObject>
        <UserObject label="Forget Password" lucidchartObjectId="LaDlg9LTs0Lg" id="fq6MFtSMGeEJQBp6nKeb-59">
          <mxCell style="html=1;overflow=block;blockSpacing=1;whiteSpace=wrap;fontSize=40;align=center;spacing=3.8;strokeOpacity=0;fillOpacity=0;rounded=1;absoluteArcSize=1;arcSize=12;strokeWidth=12;sketch=0;fillColor=#dae8fc;strokeColor=#6c8ebf;gradientColor=#7ea6e0;fontFamily=Tahoma;fontStyle=1;labelBackgroundColor=none;labelBorderColor=none;" parent="1" vertex="1">
            <mxGeometry x="-1059" y="1417" width="399" height="89" as="geometry" />
          </mxCell>
        </UserObject>
        <UserObject label="" lucidchartObjectId="V_BleUQ3f8s7" id="fq6MFtSMGeEJQBp6nKeb-60">
          <mxCell style="html=1;overflow=block;blockSpacing=1;whiteSpace=wrap;ellipse;fontSize=40;align=center;spacing=3.8;strokeOpacity=100;fillOpacity=100;rounded=1;absoluteArcSize=1;arcSize=12;strokeWidth=12;sketch=0;fillColor=#dae8fc;strokeColor=#6c8ebf;gradientColor=#7ea6e0;fontFamily=Tahoma;fontStyle=1;labelBackgroundColor=none;labelBorderColor=none;" parent="1" vertex="1">
            <mxGeometry x="-483" y="1037" width="45" height="80" as="geometry" />
          </mxCell>
        </UserObject>
        <UserObject label="forget pass #007" lucidchartObjectId="V~Bl52Lk4.BB" id="fq6MFtSMGeEJQBp6nKeb-61">
          <mxCell style="html=1;overflow=block;blockSpacing=1;whiteSpace=wrap;fontSize=40;fontStyle=3;spacing=3.8;strokeOpacity=0;fillOpacity=0;strokeWidth=12;sketch=0;fillColor=#dae8fc;strokeColor=#6c8ebf;gradientColor=#7ea6e0;fontFamily=Tahoma;labelBackgroundColor=none;labelBorderColor=none;" parent="1" vertex="1">
            <mxGeometry x="-1078" y="1210" width="437" height="131" as="geometry" />
          </mxCell>
        </UserObject>
      </root>
    </mxGraphModel>
  </diagram>
</mxfile>
